# xmcd
#
# Track frame offsets:
#	150
#	13764
#	27739
#	41555
#	54906
#	69812
#	84384
#	97800
#	109831
#	120780
#	131960
#	147709
#	161966
#	174893
#	187777
#	204138
#	217163
#	230288
#	245307
#	260466
#	274011
#	287097
#	301421
#	316432
#
# Disc length: 4400 seconds
#
# Revision: 3
# Processed by: cddbd v1.5.2PL0 Copyright (c) Steve Scherf et al.
# Submitted via: EZCDAudioConverter 3.1.0.1
#
DISCID=4e112e18
DTITLE=Memphis Minnie - Queen Of Country Blues
DYEAR=1935
DGENRE=Blues
TTITLE0=Let Me Ride
TTITLE1=When The Saints Go Marching Home
TTITLE2=Jockey Man Blues
TTITLE3=Weary Woman's Blues
TTITLE4=Reachin' Pete [Take A]
TTITLE5=Reachin' Pete [Take B]
TTITLE6=Down In New Orleans
TTITLE7=You Wrecked My Happy Home
TTITLE8=I'm Waiting On You
TTITLE9=Keep On Goin'
TTITLE10=Ball And Chain Blues
TTITLE11=He's In The Ring (Doin' That Same Old Thing) [Take A]
TTITLE12=He's In The Ring (Doin' That Same Old Thing) [Take B]
TTITLE13=Joe Louis Strut
TTITLE14=When The Sun Goes Down: Part 2
TTITLE15=Hustlin' Woman Blues
TTITLE16=Selling My Pork Chops
TTITLE17=Doctor, Doctor Blues
TTITLE18=Biting Bug Blues
TTITLE19=Minnie's Lonesome Song
TTITLE20=You Ain't Done Nothing To Me
TTITLE21=Ain't Nobody Home But Me [Take 1]
TTITLE22=Ain't Nobody Home But Me [Take 2]
TTITLE23=New Orleans Stop Time
EXTD=
EXTT0=
EXTT1=
EXTT2=
EXTT3=
EXTT4=
EXTT5=
EXTT6=
EXTT7=
EXTT8=
EXTT9=
EXTT10=
EXTT11=
EXTT12=
EXTT13=
EXTT14=
EXTT15=
EXTT16=
EXTT17=
EXTT18=
EXTT19=
EXTT20=
EXTT21=
EXTT22=
EXTT23=
PLAYORDER=
